<svg width="47" height="47" viewBox="0 0 47 47" xmlns="http://www.w3.org/2000/svg" xmlns:xlink="http://www.w3.org/1999/xlink"><title>Dark Stroke Light Fill</title><desc>Created using Figma</desc><g transform="translate(1 1)" fill="#FFD3DA"><use xlink:href="#a"/><use xlink:href="#b"/></g><use xlink:href="#c" transform="translate(1 1)" fill="#F36375"/><defs><path id="a" d="M45 45V0L0 45h45z"/><path id="b" d="M45 0h1c0-.404-.244-.77-.617-.924-.374-.155-.804-.07-1.09.217L45 0zm0 45v1c.552 0 1-.448 1-1h-1zM0 45l-.707-.707c-.286.286-.372.716-.217 1.09.155.373.52.617.924.617v-1zM44 0v45h2V0h-2zm1 44H0v2h45v-2zM.707 45.707l45-45-1.414-1.414-45 45 1.414 1.414z"/><path id="c" d="M0 0v-1c-.552 0-1 .448-1 1h1zm0 45h-1c0 .552.448 1 1 1v-1zm15 0v1c.552 0 1-.448 1-1h-1zm0-15v-1c-.552 0-1 .448-1 1h1zm15 0v1c.552 0 1-.448 1-1h-1zm0-15h1c0-.552-.448-1-1-1v1zm-15 0h-1c0 .552.448 1 1 1v-1zm0-15h1c0-.552-.448-1-1-1v1zM-1 0v15h2V0h-2zm0 15v15h2V15h-2zm0 15v15h2V30h-2zm1 16h15v-2H0v2zm16-1V30h-2v15h2zm-1-14h15v-2H15v2zm16-1V15h-2v15h2zm-1-16H15v2h15v-2zm-14 1V0h-2v15h2zM15-1H0v2h15v-2z"/></defs></svg>